<svg width="64" height="65" viewBox="0 0 64 65" fill="none" xmlns="http://www.w3.org/2000/svg">
<g clip-path="url(#clip0_809_2352)">
<path d="M47.9994 21.8334H45.3327V16.5001C45.3327 9.14008 39.3594 3.16675 31.9993 3.16675C24.6393 3.16675 18.666 9.14008 18.666 16.5001H23.9993C23.9993 12.0734 27.5727 8.50008 31.9993 8.50008C36.426 8.50008 39.9993 12.0734 39.9993 16.5001V21.8334H15.9993C13.066 21.8334 10.666 24.2334 10.666 27.1667V53.8334C10.666 56.7668 13.066 59.1667 15.9993 59.1667H47.9994C50.9327 59.1667 53.3327 56.7668 53.3327 53.8334V27.1667C53.3327 24.2334 50.9327 21.8334 47.9994 21.8334ZM47.9994 53.8334H15.9993V27.1667H47.9994V53.8334Z" fill="white"/>
</g>
<defs>
<clipPath id="clip0_809_2352">
<rect width="64" height="64" fill="white" transform="translate(0 0.5)"/>
</clipPath>
</defs>
</svg>
